<svg xmlns="http://www.w3.org/2000/svg" width="300" height="79" viewBox="0 0 160.004 41.937"><defs><mask id="a" width="9.27" height="9.29" x="0" y="0" maskUnits="userSpaceOnUse"><g data-name="b"><path d="M9.27 0H0v9.29h9.27z" data-name="a" style="fill:#fff"/></g></mask><mask id="b" width="9.27" height="9.29" x="10.2" y="0" maskUnits="userSpaceOnUse"><g data-name="d"><path d="M19.47 0H10.2v9.29h9.26V0Z" data-name="c" style="fill:#fff"/></g></mask><mask id="c" width="9.27" height="9.29" x="20.4" y="0" maskUnits="userSpaceOnUse"><g data-name="f"><path d="M29.67 0H20.4v9.29h9.27z" data-name="e" style="fill:#fff"/></g></mask><mask id="d" width="9.27" height="9.29" x="30.6" y="0" maskUnits="userSpaceOnUse"><g data-name="h"><path d="M39.86 0H30.6v9.29h9.26z" data-name="g" style="fill:#fff"/></g></mask><mask id="e" width="160" height="57.44" x="0" y="0" maskUnits="userSpaceOnUse"><g data-name="j"><path d="M0 57.44h160V0H0Z" data-name="i" style="fill:#fff"/></g></mask></defs><g data-name="Layer 2"><g data-name="header"><g mask="url(#a)"><path d="M7.39 0H1.88C.63 0 0 .58 0 1.74v5.82c0 1.15.63 1.73 1.88 1.73h5.51c1.25 0 1.88-.58 1.88-1.74V1.72C9.27.58 8.64 0 7.39 0" style="fill:#e21836"/></g><g mask="url(#b)"><path d="M17.59 0h-5.52c-1.24 0-1.87.58-1.87 1.74v5.82c0 1.15.63 1.73 1.88 1.73h5.51c1.25 0 1.88-.58 1.88-1.74V1.72C19.47.58 18.84 0 17.59 0" style="fill:#e21836"/></g><g mask="url(#c)"><path d="M27.79 0h-5.52C21 0 20.4.58 20.4 1.74v5.82c0 1.15.62 1.73 1.87 1.73h5.52c1.25 0 1.88-.58 1.88-1.74V1.72C29.67.58 29 0 27.79 0" style="fill:#e21836"/></g><g mask="url(#d)"><path d="M38 0h-5.53c-1.25 0-1.87.58-1.87 1.74v5.82c0 1.15.62 1.73 1.87 1.73H38c1.25 0 1.87-.58 1.87-1.74V1.72C39.86.58 39.24 0 38 0" style="fill:#e21836"/></g><path d="M7.39 10H1.88C.63 10 0 10.54 0 11.7v5.83c0 1.15.63 1.72 1.88 1.72h5.51c1.25 0 1.88-.58 1.88-1.73v-5.83c0-1.15-.63-1.73-1.88-1.73" style="fill:#e21836"/><path d="M17.59 10h-5.52c-1.24 0-1.87.57-1.87 1.73v5.83c0 1.15.63 1.72 1.87 1.72h5.52c1.25 0 1.88-.58 1.88-1.73v-5.86c0-1.15-.63-1.73-1.88-1.73" style="fill:#a0ce66"/><path d="M27.79 10h-5.52c-1.25 0-1.87.57-1.87 1.73v5.83c0 1.15.62 1.72 1.87 1.72h5.52c1.25 0 1.88-.58 1.88-1.73v-5.86c0-1.15-.63-1.73-1.88-1.73" style="fill:#fdb813"/><path d="M38 10h-5.53c-1.25 0-1.87.57-1.87 1.73v5.83c0 1.15.62 1.72 1.87 1.72H38c1.25 0 1.87-.58 1.87-1.73v-5.86c0-1.15-.62-1.73-1.87-1.73" style="fill:#78bde8"/><path d="M7.39 19.93H1.88c-1.25 0-1.88.58-1.88 1.73v5.83c0 1.15.63 1.72 1.88 1.72h5.51c1.25 0 1.88-.58 1.88-1.73v-5.83c0-1.15-.63-1.72-1.88-1.72" style="fill:#e21836"/><path d="M17.59 19.93h-5.52c-1.24 0-1.87.58-1.87 1.73v5.83c0 1.15.63 1.72 1.87 1.72h5.52c1.25 0 1.88-.58 1.88-1.73v-5.83c0-1.15-.63-1.72-1.88-1.72" style="fill:#00ae9e"/><path d="M27.79 19.93h-5.52c-1.25 0-1.87.58-1.87 1.73v5.83c0 1.15.62 1.72 1.87 1.72h5.52c1.25 0 1.88-.58 1.88-1.73v-5.83c0-1.15-.63-1.72-1.88-1.72" style="fill:#6cb33e"/><path d="M38 19.93h-5.53c-1.25 0-1.87.58-1.87 1.73v5.83c0 1.15.62 1.72 1.87 1.72H38c1.25 0 1.87-.58 1.87-1.73v-5.83c0-1.15-.62-1.72-1.87-1.72" style="fill:#ffe411"/><path d="M7.39 29.89H1.88c-1.25 0-1.88.58-1.88 1.74v5.82c0 1.15.63 1.73 1.88 1.73h5.51c1.25 0 1.88-.58 1.88-1.74v-5.83c0-1.14-.63-1.72-1.88-1.72m10.2 0h-5.52c-1.24 0-1.87.58-1.87 1.74v5.82c0 1.15.63 1.73 1.87 1.73h5.52c1.25 0 1.88-.58 1.88-1.74v-5.83c0-1.14-.63-1.72-1.88-1.72m10.2 0h-5.52c-1.25 0-1.87.58-1.87 1.74v5.82c0 1.15.62 1.73 1.87 1.73h5.52c1.25 0 1.88-.58 1.88-1.74v-5.83c0-1.14-.63-1.72-1.88-1.72m10.2 0h-5.52c-1.25 0-1.87.58-1.87 1.74v5.82c0 1.15.62 1.73 1.87 1.73H38c1.25 0 1.87-.58 1.87-1.74v-5.83c0-1.14-.62-1.72-1.87-1.72" style="fill:#e21836"/><path d="M106.62.38h-2.51V4.2h3.78V1.56c0-.79-.42-1.18-1.27-1.18m.1 7.53h-2.51v19H108V9.08c0-.78-.42-1.18-1.27-1.18M56.85 4.05a5.34 5.34 0 0 1 5 3.86h4.23a9.45 9.45 0 0 0-17.5-3.11c-.85 1.58-1.15 2.36-1.15 8.77s.3 7.2 1.15 8.77a9.38 9.38 0 0 0 8.27 4.8 9.1 9.1 0 0 0 9.27-7.69H61.9c-1.11 2.4-2.82 3.64-5 3.64a5.07 5.07 0 0 1-4.08-1.95c-1-1.35-1.33-2.1-1.33-7.57 0-5.47.24-6.22 1.28-7.57a5.07 5.07 0 0 1 4.08-1.95m19.91 3.64a6 6 0 0 0-4.89 2.25h-.07V1.41c0-.79-.43-1.18-1.28-1.18H68v26.68h3.8V15.59c0-2.58 1.59-4.08 3.74-4.08 2.15 0 3.71 1.5 3.71 4.08v11.32H83V14.28a6.34 6.34 0 0 0-6.27-6.59m19.88 14.24a4 4 0 0 1-6.09 0c-.7-1-.93-1.76-.93-4.54 0-2.78.23-3.48.93-4.49a4 4 0 0 1 6.08 0c.71 1 .93 1.76.93 4.53 0 2.77-.22 3.48-.93 4.5m-3-14.24a7.29 7.29 0 0 0-5.71 2.43c-1.44 1.62-2 3.19-2 7.27s.6 5.7 2 7.31a7.9 7.9 0 0 0 11.42 0c1.45-1.61 2-3.18 2-7.31 0-4.13-.59-5.65-2-7.27a7.29 7.29 0 0 0-5.71-2.43m26.07 15.62c-3.07 0-4.89-1.76-4.89-5.88s1.82-5.92 4.89-5.92a4.89 4.89 0 0 1 3.82 2l1.85-1.67a1.09 1.09 0 0 0 .06-1.7 9.81 9.81 0 0 0-1.63-1.23 8.18 8.18 0 0 0-4.27-1.18c-4.34 0-8.53 2.77-8.53 9.74 0 6.97 4.19 9.7 8.53 9.7a8.78 8.78 0 0 0 6.75-3.29l-2.79-2.51a4.91 4.91 0 0 1-3.82 2m11.27-7.6c.07-2.89 1.74-4.42 4-4.42s3.85 1.53 4 4.42zm4-8c-3.64 0-7.76 2.4-7.76 9.78 0 7.79 4.49 9.67 8.35 9.67a8.62 8.62 0 0 0 6.78-3.08l-2.78-2.44a5.89 5.89 0 0 1-4.12 1.84c-2.59 0-4.48-1.58-4.48-4.69h10.44c.85 0 1.27-.39 1.27-1.18v-2a7.67 7.67 0 0 0-7.74-7.98zm19.66 7.9-3.12-.22c-1.89-.15-2.48-1-2.48-1.8 0-1.31.82-2.28 3.23-2.28a8.29 8.29 0 0 1 5 1.76l1-1.24.67-.79a1.06 1.06 0 0 0-.31-1.46 10 10 0 0 0-1.82-1 11.66 11.66 0 0 0-4.6-.85c-4 0-7 2-7 5.84 0 3.27 2.3 5.14 5.41 5.4l3.34.3c1.3.11 2.3.52 2.3 1.87 0 1.62-1.56 2.44-3.71 2.44a7.8 7.8 0 0 1-5.93-2.44l-2.64 2.62a11.76 11.76 0 0 0 8.27 3.42c4.38 0 7.79-2.14 7.79-5.85 0-3-1.56-5.43-5.45-5.69m-48.9 15.56V34h3.85v1.27h-3.85v3.92h-1.41V29.9h5.92v1.26m4.57 8a1.69 1.69 0 0 1-1.81-1.83V29.9h1.33v7.38c0 .51.18.77.72.77h.58v1.13zm6.82-5.12a1.31 1.31 0 0 0-1-.38 1.33 1.33 0 0 0-1 .38 2.56 2.56 0 0 0-.45 1.81 2.58 2.58 0 0 0 .45 1.81 1.33 1.33 0 0 0 1 .39 1.36 1.36 0 0 0 1-.39 2.59 2.59 0 0 0 .45-1.81 2.6 2.6 0 0 0-.45-1.82m1 4.42a2.86 2.86 0 0 1-4 0 3.49 3.49 0 0 1-.77-2.6 3.5 3.5 0 0 1 .77-2.6 2.89 2.89 0 0 1 4 0 3.5 3.5 0 0 1 .78 2.6 3.45 3.45 0 0 1-.78 2.6m7.25-4.41a1.35 1.35 0 0 0-1-.38 1.3 1.3 0 0 0-1 .38 2.51 2.51 0 0 0-.46 1.81 2.53 2.53 0 0 0 .46 1.81 1.3 1.3 0 0 0 1 .39 1.36 1.36 0 0 0 1-.39 2.59 2.59 0 0 0 .45-1.81 2.6 2.6 0 0 0-.45-1.82m1 4.42a2.86 2.86 0 0 1-3.95 0 3.49 3.49 0 0 1-.78-2.6 3.5 3.5 0 0 1 .78-2.6 2.89 2.89 0 0 1 3.95 0 3.5 3.5 0 0 1 .78 2.6 3.49 3.49 0 0 1-.78 2.6m7.47-4.35a1.22 1.22 0 0 0-1-.44 1.36 1.36 0 0 0-1.24 1.5v4h-1.33v-6.59h1.3v.72a2.2 2.2 0 0 1 1.76-.8 2 2 0 0 1 1.57.63z" style="fill:#0066b1"/><g mask="url(#e)"><path d="M141.61 39.18h1.33v-6.61h-1.33zm0-7.92H143v-1.4h-1.4zm8.76 7.92v-4a1.28 1.28 0 0 0-1.37-1.5 1.31 1.31 0 0 0-1.36 1.47v4h-1.33v-6.58h1.3v.66a2.38 2.38 0 0 1 1.76-.74 2.25 2.25 0 0 1 1.62.6 2.43 2.43 0 0 1 .67 1.87v4.22zm7-5.5c-1.19 0-1.35 1-1.35 2.07 0 1.07.16 2.07 1.35 2.07 1.19 0 1.34-1 1.34-2.07 0-1.07-.14-2.07-1.34-2.07m-.15 8.25a3 3 0 0 1-2.33-.87l.84-.85a1.86 1.86 0 0 0 1.43.59 1.49 1.49 0 0 0 1.55-1.68v-.85A2 2 0 0 1 157 39a2.21 2.21 0 0 1-1.58-.58 3.65 3.65 0 0 1-.74-2.69 3.57 3.57 0 0 1 .74-2.68 2.21 2.21 0 0 1 1.59-.58 2 2 0 0 1 1.73.78v-.7H160v6.57a2.65 2.65 0 0 1-2.82 2.79" style="fill:#0066b1"/></g></g></g></svg>